<?xml version="1.0" standalone="no"?><!DOCTYPE svg PUBLIC "-//W3C//DTD SVG 1.1//EN" "http://www.w3.org/Graphics/SVG/1.1/DTD/svg11.dtd"><svg t="1510642948524" class="icon" style="" viewBox="0 0 1024 1024" version="1.1" xmlns="http://www.w3.org/2000/svg" p-id="13406" xmlns:xlink="http://www.w3.org/1999/xlink" width="200" height="200"><defs><style type="text/css"></style></defs><path d="M377.029925 0.940029a84.749487 84.749487 0 0 1 59.486208 13.292597 144.602895 144.602895 0 0 1 55.079823 76.010156 214.150351 214.150351 0 0 1-2.93759 145.116972 146.218569 146.218569 0 0 1-41.860666 59.779968 85.777644 85.777644 0 0 1-110.894043 3.08447 156.647016 156.647016 0 0 1-50.673437-77.478951 212.314357 212.314357 0 0 1 4.406386-136.59796 143.134099 143.134099 0 0 1 48.470244-66.977064A96.720169 96.720169 0 0 1 377.029925 0.940029z m302.571826 23.206965a67.638022 67.638022 0 0 1 42.595063 7.343977 136.965159 136.965159 0 0 1 47.001449 38.629315 160.319004 160.319004 0 0 1 33.782291 77.62583 132.191575 132.191575 0 0 1-5.875181 58.751811 229.058623 229.058623 0 0 1-30.110303 64.333233 150.110877 150.110877 0 0 1-45.532654 42.888822 101.787512 101.787512 0 0 1-56.548618 13.439477 106.414217 106.414217 0 0 1-66.095787-26.144556 114.93323 114.93323 0 0 1-33.047894-62.644118 257.479811 257.479811 0 0 1-1.468795-75.128878 160.245564 160.245564 0 0 1 24.235122-61.836281 212.975314 212.975314 0 0 1 44.798256-52.87663 105.239181 105.239181 0 0 1 46.267051-24.014803z m-544.188648 212.240917a99.43744 99.43744 0 0 1 64.626992 11.162844 163.623793 163.623793 0 0 1 65.361389 70.208414 115.300429 115.300429 0 0 1 11.750362 37.968358 268.202017 268.202017 0 0 1-7.343976 99.657759 126.757032 126.757032 0 0 1-35.251087 57.870534 125.361676 125.361676 0 0 1-80.049342 28.568068 100.245277 100.245277 0 0 1-66.095787-24.014803 158.40957 158.40957 0 0 1-46.267051-79.094625 148.348323 148.348323 0 0 1-3.671988-62.20348 216.353544 216.353544 0 0 1 35.251086-98.335843 94.810735 94.810735 0 0 1 61.689402-41.787226z m706.490526 76.377354a129.033665 129.033665 0 0 1 77.111751 12.998838 120.220893 120.220893 0 0 1 49.93904 51.407835 143.574738 143.574738 0 0 1 17.625543 57.136136 371.238005 371.238005 0 0 1-4.406386 85.630764 127.27111 127.27111 0 0 1-24.96952 54.786064 90.477789 90.477789 0 0 1-47.735846 30.918141 169.645854 169.645854 0 0 1-58.751811 3.745428 122.277206 122.277206 0 0 1-64.626992-23.060086 100.318717 100.318717 0 0 1-33.782291-49.8656 266.072264 266.072264 0 0 1-8.078374-79.975902 226.194472 226.194472 0 0 1 16.156748-82.472855 102.154711 102.154711 0 0 1 41.126268-47.956165 103.770386 103.770386 0 0 1 40.39187-13.586357zM490.861559 416.241892a145.116973 145.116973 0 0 1 77.846149 12.705079 223.477201 223.477201 0 0 1 88.127716 82.105656 813.198503 813.198503 0 0 0 93.2685 108.543971 1261.47482 1261.47482 0 0 0 100.612476 90.698108c5.875181 4.920464 11.750362 9.40029 17.625543 14.687952a166.194185 166.194185 0 0 1 46.267052 99.951519 230.01334 230.01334 0 0 1-22.03193 114.85979 134.101008 134.101008 0 0 1-59.486208 62.20348 229.278942 229.278942 0 0 1-117.503622 22.031929 440.638582 440.638582 0 0 1-114.566031-20.269375 374.542794 374.542794 0 0 0-139.535551-9.987808c-21.297531 2.350072-42.595063 8.372133-63.892594 11.603483a661.69227 661.69227 0 0 1-147.613925 7.343976 142.7669 142.7669 0 0 1-105.018862-52.80319 184.040048 184.040048 0 0 1-33.782291-64.994191 211.35964 211.35964 0 0 1-10.281567-67.564582 178.238306 178.238306 0 0 1 22.766326-77.111752A302.278067 302.278067 0 0 1 205.180878 661.604142a200.049916 200.049916 0 0 0 27.90711-22.031929c14.687953-13.953555 30.844701-26.952393 46.267051-41.126267a502.842061 502.842061 0 0 0 74.908559-87.246439c6.609579-9.033091 11.750362-18.72714 18.359941-27.319592a177.283589 177.283589 0 0 1 118.23802-68.078661M406.40583 579.351607v98.042085h-70.502173a78.213348 78.213348 0 0 0-23.500724 4.186066 121.02873 121.02873 0 0 0-49.939039 29.375906 136.74484 136.74484 0 0 0-35.251087 59.339329 189.107391 189.107391 0 0 0 0 61.028443 120.294333 120.294333 0 0 0 23.500724 53.684467 114.051953 114.051953 0 0 0 66.095788 42.668503 195.86385 195.86385 0 0 0 38.188677 1.835994h118.972417V579.057848h-67.564583m104.284465 103.256308v176.255432a66.977064 66.977064 0 0 0 22.031929 52.142233 84.896367 84.896367 0 0 0 47.735846 19.167778h163.770673V682.607915h-67.564583v190.576186h-71.23657a27.83367 27.83367 0 0 1-20.563134-8.298693 26.511755 26.511755 0 0 1-6.609579-19.241218V682.534475h-67.564582z m0 0l-179.193024 55.593901a37.38084 37.38084 0 0 1 14.687953-4.259506h60.220606q1.101596 69.620896 0 139.53555h-53.611027a55.88766 55.88766 0 0 1-47.735846-23.794483 77.77271 77.77271 0 0 1-13.219158-44.063858 109.278368 109.278368 0 0 1 6.609579-37.601159 64.553552 64.553552 0 0 1 33.047893-29.375906z m0 0" fill="#306CFF" p-id="13407"></path></svg>